<?xml version="1.0" standalone="no"?>
<!DOCTYPE svg PUBLIC "-//W3C//DTD SVG 20010904//EN"
 "http://www.w3.org/TR/2001/REC-SVG-20010904/DTD/svg10.dtd">
<svg version="1.0" xmlns="http://www.w3.org/2000/svg"
 width="6000.000000pt" height="3376.000000pt" viewBox="0 0 6000.000000 3376.000000"
 preserveAspectRatio="xMidYMid meet">

<g transform="translate(0.000000,3376.000000) scale(0.100000,-0.100000)"
fill="#000000" stroke="none">
<path d="M0 16880 l0 -16880 30000 0 30000 0 0 16880 0 16880 -1625 0 -1625 0
0 -24 c0 -37 -17 -40 -35 -6 l-16 30 -28349 0 -28350 0 0 -16880z m56870
16675 c0 -15 -24 -54 -31 -49 -10 6 10 54 23 54 4 0 8 -2 8 -5z m-34 -128 c-5
-40 -3 -65 10 -96 15 -38 19 -41 44 -36 43 10 70 -12 70 -57 0 -27 -4 -38 -15
-38 -9 0 -18 7 -21 15 -3 8 -25 20 -48 26 -22 6 -46 15 -52 20 -17 14 -24 63
-15 97 5 18 5 34 0 39 -9 9 15 83 27 83 4 0 3 -24 0 -53z m109 -367 c-3 -5
-11 -10 -16 -10 -6 0 -7 5 -4 10 3 6 11 10 16 10 6 0 7 -4 4 -10z m-49 -96
c-3 -8 -10 -12 -16 -9 -7 4 -6 14 2 28 12 24 24 8 14 -19z m16 -84 c15 -16 33
-30 39 -30 6 0 9 -10 7 -22 -4 -28 -55 -39 -64 -14 -4 10 -18 16 -36 16 -28 0
-30 2 -23 27 8 32 23 53 38 53 5 0 23 -13 39 -30z m56 -107 c0 -10 3 -26 7
-35 4 -10 3 -18 -3 -18 -12 0 -25 47 -17 60 9 15 14 12 13 -7z m34 -90 c3 -21
1 -41 -5 -44 -12 -9 0 -15 46 -23 23 -4 37 -12 34 -19 -2 -7 -9 -12 -15 -11
-7 1 -24 2 -39 3 -32 1 -53 36 -53 86 0 57 26 63 32 8z m122 -170 c2 -10 7
-45 11 -78 4 -43 3 -56 -4 -45 -6 8 -11 27 -11 43 0 15 -4 27 -10 27 -5 0 -10
16 -10 35 0 37 15 48 24 18z m131 -342 c3 -6 -3 -14 -13 -20 -14 -7 -21 -5
-30 10 -11 17 -9 19 12 19 14 0 27 -4 31 -9z m114 -158 c-5 -21 -14 -78 -19
-126 -15 -130 -29 -143 -30 -26 0 82 3 99 20 119 11 13 20 36 20 52 0 16 4 27
9 24 5 -4 5 -21 0 -43z m-59 -342 c0 -12 -20 -25 -27 -18 -7 7 6 27 18 27 5 0
9 -4 9 -9z m950 -941 c0 -6 -6 -25 -13 -43 -8 -18 -12 -38 -10 -44 7 -19 -8
-16 -23 5 -19 24 -17 37 9 66 23 27 37 33 37 16z m-25 -149 c-7 -23 -25 -29
-25 -8 0 14 21 39 28 33 2 -3 1 -14 -3 -25z m-15 -51 c0 -5 -2 -10 -4 -10 -3
0 -8 5 -11 10 -3 6 -1 10 4 10 6 0 11 -4 11 -10z m50 -114 c-14 -14 -22 -2
-14 18 5 14 9 15 15 4 4 -7 4 -17 -1 -22z m-130 -872 c0 -8 -5 -12 -10 -9 -6
4 -8 11 -5 16 9 14 15 11 15 -7z m-344 -398 c-14 -19 -26 -39 -26 -45 0 -16
-17 -13 -23 3 -4 9 8 28 25 45 43 41 57 39 24 -3z m-177 -260 c-24 -25 -45
-43 -47 -41 -8 8 62 85 76 85 9 0 -2 -18 -29 -44z m-129 -278 c-1 -18 -47 -50
-67 -46 -14 3 -12 8 12 31 32 29 55 35 55 15z m215 -707 c14 -29 7 -49 -13
-37 -9 5 -14 66 -7 66 3 0 11 -13 20 -29z m30 -1081 c-3 -5 -11 -10 -16 -10
-6 0 -7 5 -4 10 3 6 11 10 16 10 6 0 7 -4 4 -10z m-120 -980 c7 -12 -42 -33
-56 -24 -5 3 -9 12 -9 20 0 16 55 20 65 4z m55 -55 c-7 -8 -19 -15 -26 -15 -8
0 -14 7 -14 15 0 10 10 15 26 15 22 0 25 -2 14 -15z m-80 -161 c-8 -8 -23 -20
-34 -26 -19 -10 -18 -8 3 16 26 27 53 37 31 10z m-690 -909 c-7 -9 -9 -26 -5
-46 10 -46 -9 -76 -46 -71 -35 5 -35 9 -8 38 17 18 19 26 10 42 -15 28 -14 31
12 42 36 14 52 13 37 -5z m100 -472 c0 -17 -17 -29 -57 -45 -24 -9 -43 -12
-43 -7 0 5 -1 12 -2 15 -2 4 13 15 32 25 35 19 70 25 70 12z m98 -1208 c-2 -3
-35 -8 -73 -11 -48 -5 -66 -3 -61 5 4 6 35 11 73 11 37 0 64 -2 61 -5z m102
-40 c0 -15 -10 -19 -45 -15 -25 2 -29 6 -20 19 10 17 65 14 65 -4z m-32533
-1340 c48 -20 73 -43 73 -66 0 -11 27 -40 64 -69 35 -28 67 -57 70 -65 3 -8
17 -15 31 -15 15 0 36 -5 48 -11 33 -17 77 -61 77 -77 0 -8 7 -26 15 -40 8
-15 19 -39 24 -53 7 -20 20 -29 56 -38 69 -17 187 -75 214 -105 26 -27 32 -75
16 -125 -6 -18 -5 -23 6 -19 43 15 66 -47 32 -84 -13 -14 -17 -34 -15 -74 1
-31 -2 -54 -8 -54 -5 0 -10 -6 -10 -13 0 -10 -13 -12 -55 -7 l-55 6 7 -40 c3
-23 12 -45 20 -49 7 -5 11 -12 8 -18 -4 -5 -1 -9 4 -9 6 0 11 -14 11 -30 0
-31 -37 -80 -60 -80 -15 0 -41 -26 -33 -34 4 -3 1 -6 -5 -6 -7 0 -12 -5 -12
-10 0 -6 -24 -35 -54 -65 -42 -42 -61 -55 -84 -55 -17 0 -33 -6 -35 -12 -4
-10 -8 -10 -15 1 -5 7 -15 10 -21 7 -6 -4 -11 -3 -11 2 0 17 -108 -2 -123 -22
-5 -7 -7 -2 -4 10 4 17 1 20 -14 17 -11 -3 -19 -11 -19 -18 0 -7 -10 -11 -24
-10 -19 2 -25 -4 -34 -33 -9 -28 -9 -38 1 -44 8 -5 4 -8 -10 -8 -12 0 -27 -9
-33 -20 -6 -11 -18 -20 -26 -20 -8 0 -13 -4 -10 -9 4 -5 0 -12 -6 -14 -10 -4
-9 -8 2 -16 8 -6 10 -11 4 -11 -7 0 -11 -25 -11 -66 -1 -47 -5 -68 -16 -77 -9
-7 -20 -24 -26 -38 -9 -25 -82 -69 -116 -69 -9 0 -12 -6 -9 -15 4 -9 -1 -18
-12 -22 -11 -4 -29 -18 -41 -32 -13 -14 -23 -21 -24 -16 -1 6 -4 -1 -8 -15 -4
-15 -14 -24 -23 -22 -16 2 -38 -43 -38 -81 0 -14 -5 -18 -20 -14 -23 6 -27
-11 -5 -19 8 -4 15 -10 15 -15 0 -5 -7 -9 -15 -9 -14 0 -20 -17 -16 -47 1 -8
-5 -10 -16 -7 -10 3 -14 2 -8 -3 6 -4 16 -19 23 -31 12 -22 12 -23 -7 -17 -12
4 -21 2 -21 -4 0 -6 6 -11 13 -11 9 0 9 -2 -1 -9 -8 -5 -11 -17 -7 -33 7 -29
-15 -53 -44 -45 -22 5 -37 -31 -21 -47 7 -7 10 -3 11 10 1 11 4 7 8 -11 9 -37
3 -55 -17 -55 -20 0 -4 -16 23 -23 19 -5 19 -5 -3 -12 -29 -10 -23 -31 9 -28
15 1 17 0 7 -3 -10 -3 -18 -9 -19 -12 -6 -52 -5 -92 3 -92 5 0 6 -6 1 -12 -4
-7 -6 -26 -5 -43 2 -23 1 -27 -7 -15 -17 24 -13 -30 4 -60 12 -22 14 -23 20
-7 4 9 12 17 17 17 6 0 6 -6 -2 -15 -6 -8 -9 -23 -5 -35 3 -11 2 -20 -3 -20
-10 0 -7 -14 14 -72 4 -10 11 -18 16 -18 6 0 5 -7 -2 -15 -10 -12 -10 -15 1
-15 9 -1 7 -6 -6 -16 -20 -15 -20 -15 -1 -30 11 -8 15 -14 9 -14 -19 0 -24
-32 -7 -45 13 -9 14 -14 5 -19 -9 -6 -7 -12 6 -22 11 -9 13 -13 4 -12 -7 2
-16 -3 -18 -10 -3 -9 2 -12 13 -10 16 3 19 -3 16 -35 -2 -33 1 -38 16 -33 16
5 17 -2 16 -77 0 -59 4 -87 14 -100 14 -15 13 -19 -4 -32 -10 -8 -14 -15 -7
-15 7 0 11 -11 8 -29 -2 -16 3 -41 10 -55 8 -15 13 -32 11 -39 -1 -7 -1 -9 1
-4 8 12 22 -3 17 -17 -3 -8 0 -33 6 -57 8 -30 14 -38 20 -28 12 18 18 0 23
-71 3 -34 8 -54 16 -53 15 4 14 -14 -1 -20 -7 -3 -3 -6 9 -6 22 -1 44 -21 23
-21 -6 0 -8 -4 -5 -10 3 -5 14 -10 23 -10 22 0 96 -76 87 -90 -3 -5 -1 -10 5
-10 6 0 14 -8 17 -17 9 -24 29 -43 37 -36 3 4 6 1 6 -6 0 -7 7 -11 14 -8 10 4
13 1 9 -9 -3 -7 0 -14 7 -14 6 0 8 -5 4 -12 -5 -8 0 -7 11 2 17 14 18 13 12
-2 -3 -10 -3 -17 1 -16 12 4 103 -95 118 -127 7 -16 13 -23 14 -15 0 13 1 13
10 0 13 -20 13 -33 0 -25 -12 7 -12 3 -4 -20 6 -13 9 -14 16 -3 6 9 7 5 3 -11
-4 -13 -3 -26 2 -30 16 -10 25 -141 10 -141 -8 0 -8 -3 2 -9 8 -5 14 -29 15
-57 1 -27 4 -53 7 -59 3 -5 6 -37 7 -70 1 -33 6 -79 13 -102 6 -23 9 -58 7
-77 -2 -20 0 -36 4 -36 4 0 8 -5 8 -11 0 -5 -5 -7 -11 -3 -19 11 0 -57 27 -99
14 -21 22 -43 18 -49 -4 -6 -3 -8 3 -5 6 4 14 -1 17 -10 8 -20 18 -118 20
-185 1 -25 4 -44 8 -42 3 2 8 1 10 -3 5 -12 154 -123 165 -123 13 0 54 -36 48
-42 -3 -2 6 -28 20 -56 18 -38 31 -52 46 -52 37 0 57 -17 52 -45 -9 -42 88
-155 132 -155 12 0 42 -16 67 -36 51 -42 133 -75 201 -81 39 -4 51 -10 69 -36
12 -18 34 -44 50 -58 15 -14 28 -31 28 -38 0 -13 94 -111 107 -111 16 0 35
-61 38 -118 2 -54 4 -57 29 -60 21 -3 31 -13 47 -51 15 -33 32 -53 57 -67 46
-25 82 -53 82 -65 0 -15 -16 -10 -42 15 -14 12 -42 33 -61 45 -19 12 -42 37
-51 56 -13 26 -23 35 -41 35 -16 0 -25 6 -25 15 0 8 -5 15 -11 15 -7 0 -9 10
-5 26 4 14 0 49 -9 77 -12 41 -26 60 -65 92 -27 22 -50 43 -50 46 0 7 -43 64
-87 117 -23 26 -35 32 -69 32 -25 0 -60 10 -88 25 -26 14 -52 25 -58 25 -6 0
-30 16 -54 35 -23 19 -50 35 -59 35 -49 0 -160 111 -167 165 -2 23 -10 31 -36
39 -28 8 -39 20 -63 73 -28 58 -35 65 -92 93 -73 35 -87 37 -80 10 3 -11 1
-20 -4 -20 -11 0 -7 -43 7 -75 28 -66 36 -248 12 -278 -6 -7 -8 -24 -5 -37 4
-15 3 -21 -5 -16 -12 7 -17 -288 -5 -307 4 -7 9 -20 10 -30 4 -25 35 -66 51
-67 6 0 12 -3 12 -8 0 -4 12 -21 28 -37 15 -16 26 -33 25 -37 -2 -5 1 -8 5 -8
4 0 7 -55 7 -122 0 -109 3 -128 23 -168 17 -33 25 -68 28 -130 7 -121 10 -129
38 -126 14 2 47 -11 78 -30 29 -19 58 -34 64 -34 6 0 31 -11 55 -24 24 -13 67
-26 94 -29 28 -3 70 -16 95 -28 68 -32 253 -151 268 -171 7 -10 30 -27 50 -37
20 -11 49 -32 63 -48 51 -55 42 -89 -9 -35 -33 34 -167 136 -236 179 -117 74
-155 90 -265 114 -23 5 -90 31 -148 59 -83 40 -113 49 -142 46 -20 -3 -39 -5
-43 -5 -4 -1 -10 -17 -14 -36 -3 -19 -10 -38 -15 -41 -5 -3 -9 -11 -9 -19 0
-8 -14 -29 -30 -47 -45 -49 -88 -133 -112 -218 -24 -86 -26 -98 -27 -126 -1
-11 -17 -39 -36 -61 -19 -22 -31 -43 -27 -47 3 -4 -1 -4 -9 -1 -16 6 -39 -30
-39 -61 0 -8 -9 -24 -20 -36 -11 -12 -19 -27 -18 -32 0 -6 -2 -20 -6 -31 -4
-11 -12 -31 -17 -45 -5 -14 -37 -55 -72 -91 -34 -37 -68 -75 -74 -85 -7 -11
-24 -35 -38 -54 -14 -19 -36 -60 -50 -90 -14 -30 -31 -65 -37 -77 -6 -12 -8
-32 -5 -44 6 -23 -19 -89 -33 -89 -11 0 -40 -165 -40 -227 0 -55 34 -169 76
-259 13 -28 24 -61 24 -74 0 -13 12 -43 26 -68 24 -41 26 -50 19 -115 -3 -39
-12 -83 -20 -97 -7 -14 -18 -49 -24 -78 -6 -29 -18 -64 -27 -77 -10 -16 -14
-37 -12 -57 6 -36 -17 -115 -39 -137 -41 -40 -47 -62 -45 -165 0 -63 -4 -114
-12 -136 -8 -19 -20 -55 -27 -80 -13 -44 -91 -173 -132 -217 -19 -22 -29 -66
-29 -133 1 -19 2 -89 3 -155 3 -100 -1 -133 -19 -199 -20 -70 -22 -85 -11
-135 14 -69 24 -88 48 -96 23 -7 51 -78 51 -128 0 -38 12 -71 34 -93 16 -15
10 -135 -6 -146 -7 -4 -22 -7 -33 -6 -16 3 -21 13 -25 53 -3 28 -11 59 -17 70
-9 17 -20 71 -28 135 -3 28 -17 49 -37 56 -26 8 -45 55 -53 131 -7 59 -5 77
32 235 15 68 13 131 -8 214 -7 27 -7 63 -1 112 10 72 16 82 112 199 9 11 25
44 55 118 7 17 19 43 26 59 9 19 14 69 14 145 l0 116 38 57 c33 48 39 66 43
123 2 37 13 88 24 112 11 25 20 51 20 57 0 6 9 28 20 49 29 54 30 129 2 166
-12 17 -22 42 -22 57 0 15 -15 59 -34 98 -19 39 -38 85 -42 101 -4 17 -11 35
-16 42 -36 46 -6 350 40 405 8 10 12 27 9 40 -4 14 8 53 33 110 22 48 40 92
40 97 0 5 11 22 24 37 13 16 50 61 82 99 32 39 65 77 74 85 14 14 23 31 48 90
5 14 20 47 31 73 12 26 18 53 15 59 -4 7 -3 8 4 4 7 -4 12 -3 12 3 0 5 20 33
45 62 25 29 45 60 45 69 0 23 58 198 83 250 12 25 33 59 47 76 14 17 32 40 41
51 9 11 21 42 28 69 7 27 18 52 24 56 8 5 12 42 12 110 0 84 -4 113 -23 158
-20 47 -22 70 -20 161 l2 105 -36 35 c-20 19 -50 46 -66 61 -41 38 -49 78 -52
248 -2 109 4 174 18 210 16 43 15 240 -3 266 -8 13 -12 31 -8 40 4 11 3 15 -5
10 -7 -4 -9 4 -5 27 3 23 -2 50 -17 83 -13 29 -23 75 -25 113 -2 35 -6 66 -9
69 -3 3 -6 15 -5 26 0 21 1 21 10 1 8 -17 9 -16 3 5 -3 14 -6 31 -6 38 -1 6
-5 12 -10 12 -4 0 -8 5 -8 11 0 5 6 7 13 4 6 -4 -3 7 -20 24 -18 17 -33 38
-33 46 0 8 -7 15 -16 15 -10 0 -14 6 -10 15 3 8 2 15 -3 15 -4 0 -8 22 -8 50
0 27 3 47 7 45 11 -7 3 109 -9 140 -7 17 -10 50 -8 75 3 25 1 52 -3 60 -5 8
-11 38 -15 65 -8 57 -24 201 -25 228 -1 9 -5 15 -11 12 -5 -4 -9 3 -9 15 0 13
-4 19 -11 14 -7 -4 -9 0 -5 13 4 13 0 25 -11 34 -16 13 -17 12 -4 -3 25 -33
-5 -18 -38 17 -17 19 -36 35 -41 35 -6 0 -10 7 -10 16 0 8 -4 12 -10 9 -5 -3
-10 1 -10 10 0 9 -4 14 -9 10 -5 -3 -19 8 -31 25 -12 17 -27 27 -33 24 -7 -4
-9 -4 -5 1 8 8 -15 35 -30 35 -5 0 -17 16 -27 36 -11 24 -21 34 -32 30 -11 -5
-13 -2 -9 10 4 10 1 14 -6 12 -15 -5 -26 6 -50 47 -10 17 -22 29 -27 28 -6 -2
-8 10 -6 27 3 23 0 28 -12 23 -13 -5 -15 -2 -10 17 3 13 -1 39 -9 58 -7 19
-14 41 -14 49 0 8 -12 30 -26 49 -15 19 -21 34 -15 34 6 0 11 -4 11 -10 0 -5
4 -10 9 -10 5 0 4 13 -2 30 -6 16 -14 25 -18 19 -8 -14 -19 26 -19 74 0 20 -3
37 -7 37 -5 0 -9 17 -10 38 -6 103 -16 162 -29 173 -8 6 -14 22 -14 35 0 13
-4 24 -9 24 -8 0 -34 120 -35 163 0 10 -6 15 -13 13 -9 -4 -10 1 -3 19 5 14 7
32 4 40 -4 8 -2 21 3 28 15 18 4 87 -13 87 -8 0 -14 7 -14 15 0 8 -8 16 -17
16 -16 1 -16 2 0 6 13 3 16 10 11 21 -4 10 -6 45 -5 80 2 38 -2 62 -8 62 -6 0
-11 5 -11 11 0 5 5 7 10 4 6 -3 10 3 10 14 0 11 -4 22 -10 26 -5 3 -7 12 -4
20 4 8 -1 18 -10 21 -9 3 -16 12 -16 20 0 8 -5 14 -10 14 -6 0 -8 11 -4 25 4
15 2 25 -5 25 -6 0 -8 7 -5 15 4 8 11 12 17 8 7 -4 8 0 3 13 -5 10 -11 28 -14
39 -3 11 -10 24 -16 28 -6 4 1 5 15 2 17 -4 30 -1 40 11 12 15 12 16 -6 10
-16 -5 -21 -2 -21 14 0 23 7 25 24 8 6 -6 15 -8 19 -4 4 4 0 12 -10 17 -24 14
-22 50 3 56 25 7 26 23 3 23 -15 0 -16 2 -3 10 13 8 12 10 -5 10 -15 0 -16 3
-7 12 7 7 12 26 12 42 0 25 -2 28 -11 16 -8 -12 -10 -9 -6 13 2 15 0 27 -5 27
-5 0 -8 6 -5 13 2 6 11 11 18 9 11 -3 12 -1 2 9 -15 15 -17 29 -4 29 6 0 22
11 37 25 26 25 27 26 8 40 -15 11 -17 16 -6 26 10 11 12 10 12 -5 0 -10 5 -16
13 -13 6 2 11 10 9 16 -1 7 1 10 6 7 4 -2 14 -1 22 4 10 6 11 12 3 22 -9 11 1
13 58 12 46 0 68 3 66 10 -3 7 16 11 50 11 30 0 57 3 60 8 2 4 -1 7 -6 7 -6 0
-11 5 -11 10 0 6 5 10 11 10 28 0 79 34 79 52 0 17 2 18 16 8 8 -8 14 -9 13
-4 -6 33 2 46 25 42 24 -5 24 -3 22 51 -3 63 12 104 53 139 14 13 20 20 12 16
-9 -5 -12 -3 -7 5 4 6 11 9 16 6 5 -3 12 0 17 7 7 12 9 17 12 36 3 19 58 71
81 76 61 15 170 23 215 16 30 -5 55 -4 62 2 7 5 17 7 22 3 6 -3 16 3 23 15 7
11 18 20 25 20 15 0 47 85 38 101 -5 7 -4 10 2 6 6 -4 14 4 17 18 4 15 14 25
25 25 28 0 29 7 13 68 -17 62 -29 77 -49 60 -7 -6 -13 -7 -13 -2 0 4 -5 3 -12
-4 -7 -7 -22 -12 -34 -12 -12 0 -24 -3 -26 -7 -5 -13 -78 -65 -93 -67 -7 -1
-30 -14 -51 -28 -31 -21 -54 -27 -117 -30 -54 -4 -83 -10 -96 -22 -34 -31
-176 -59 -264 -52 -75 6 -78 5 -87 -18 -10 -26 -49 -58 -122 -101 -27 -15 -48
-33 -48 -41 0 -8 -16 -24 -35 -36 -19 -13 -35 -29 -35 -36 0 -7 -7 -15 -15
-18 -8 -4 -15 -12 -15 -20 0 -8 -5 -14 -11 -14 -7 0 -17 -7 -23 -15 -13 -18
-129 -23 -149 -7 -7 6 -62 14 -122 18 -61 4 -119 11 -130 17 -11 5 -38 9 -61
9 -23 -1 -54 5 -70 13 -18 9 -57 15 -101 15 -69 0 -72 1 -94 33 -33 46 -36 47
-91 24 -43 -18 -55 -19 -99 -9 -64 15 -139 15 -139 1 0 -6 -6 -9 -14 -6 -15 6
-40 -16 -30 -26 9 -9 -16 -48 -27 -42 -18 12 -9 41 22 68 17 15 35 27 40 27 5
0 17 5 27 11 14 9 34 9 78 0 114 -23 123 -24 149 -7 36 24 59 20 91 -17 26
-31 33 -34 78 -31 26 2 67 -3 90 -11 22 -7 70 -16 105 -19 35 -4 66 -8 70 -11
4 -2 32 -5 62 -6 30 -1 58 -4 63 -7 4 -2 29 -6 55 -7 25 -2 74 -6 109 -9 55
-5 64 -3 80 15 9 11 30 35 46 52 15 18 35 46 42 64 11 25 25 36 64 50 27 10
50 21 50 25 0 5 7 8 15 8 8 0 36 23 62 50 l47 51 76 -7 c84 -7 158 11 256 60
39 19 67 26 112 26 34 0 64 5 68 11 3 6 30 22 58 34 29 13 58 30 65 39 8 9 33
25 57 36 25 10 47 26 50 34 3 9 9 14 13 12 3 -2 6 6 7 17 0 12 4 35 9 51 6 21
5 27 -4 22 -18 -12 -13 2 10 23 19 17 20 22 7 34 -7 8 -31 20 -52 28 -21 8
-49 27 -62 42 -37 44 -115 71 -203 72 l-74 0 -18 35 c-29 54 -76 100 -101 100
-45 0 -98 21 -138 55 -23 19 -50 35 -60 35 -29 0 -70 39 -70 67 0 23 -3 25
-31 19 -31 -6 -55 -27 -92 -80 l-17 -25 -50 31 c-28 17 -50 36 -50 42 0 15 36
46 44 39 3 -4 6 1 6 9 0 10 21 20 66 31 36 9 77 25 92 35 15 11 43 24 63 31
43 14 79 45 79 69 0 19 104 90 133 91 10 1 34 -6 54 -14z m32637 -367 c-10
-33 -26 -39 -42 -16 -12 17 -13 22 -1 29 8 5 22 9 32 9 14 0 17 -5 11 -22z
m1256 -183 c-13 -16 -60 -21 -60 -7 0 15 13 22 43 22 25 0 28 -2 17 -15z m195
-215 c-3 -5 -12 -10 -18 -10 -7 0 -6 4 3 10 19 12 23 12 15 0z m-33478 -197
c-3 -10 -5 -4 -5 12 0 17 2 24 5 18 2 -7 2 -21 0 -30z m-2328 -470 c-1 -10 -4
-31 -8 -47 -6 -27 -7 -26 -17 18 -9 42 -9 46 8 46 11 0 18 -7 17 -17z m5 -182
c0 -29 -3 -50 -9 -48 -14 5 -27 67 -20 95 10 40 27 11 29 -47z m20 -103 c23
-19 66 -24 66 -8 0 14 54 12 68 -2 7 -7 12 -20 12 -30 0 -16 -5 -18 -34 -13
-27 5 -36 3 -48 -13 -11 -16 -25 -20 -76 -20 -34 0 -64 4 -67 9 -3 4 -13 5
-23 2 -15 -6 -15 -5 -2 11 10 13 23 17 46 13 40 -7 47 -1 29 27 -12 18 -13 39
-5 66 1 3 4 -2 7 -10 4 -8 16 -22 27 -32z m1281 -8 c-3 -5 -12 -10 -18 -10 -7
0 -6 4 3 10 19 12 23 12 15 0z m-1418 -102 c-3 -8 -6 -5 -6 6 -1 11 2 17 5 13
3 -3 4 -12 1 -19z m1603 -58 c0 -5 -5 -10 -11 -10 -5 0 -7 5 -4 10 3 6 8 10
11 10 2 0 4 -4 4 -10z m34185 -120 c-3 -5 -13 -10 -21 -10 -8 0 -14 5 -14 10
0 6 9 10 21 10 11 0 17 -4 14 -10z m-34275 -40 c0 -5 -2 -10 -4 -10 -3 0 -8 5
-11 10 -3 6 -1 10 4 10 6 0 11 -4 11 -10z m-1490 -42 c0 -13 -23 -5 -28 10 -2
7 2 10 12 6 9 -3 16 -11 16 -16z m102 10 c8 -7 21 -29 28 -48 19 -49 27 -58
75 -79 54 -24 90 -91 86 -162 -3 -57 19 -84 76 -95 49 -9 63 -20 63 -53 0 -14
9 -42 20 -61 11 -19 23 -43 26 -52 4 -10 11 -18 16 -18 5 0 8 -10 6 -22 -3
-23 37 -58 66 -58 8 0 23 -12 34 -27 l20 -28 24 21 c31 29 66 46 78 39 6 -3
10 1 10 9 0 9 2 16 4 16 2 0 13 3 23 6 17 5 17 5 1 -6 -10 -6 -18 -20 -18 -30
0 -11 -7 -20 -15 -20 -8 0 -25 -21 -36 -46 -33 -70 -89 -86 -103 -29 -9 34
-28 54 -79 80 -34 17 -42 28 -54 70 -8 28 -25 61 -39 75 -16 18 -22 33 -19 52
5 24 -1 29 -59 57 -63 31 -70 40 -80 106 -17 107 -43 155 -87 155 -9 0 -29 12
-44 26 -23 21 -25 28 -14 35 11 7 12 11 1 17 -7 5 -12 13 -11 18 7 37 -34 50
-44 14 -6 -24 -16 -25 -43 -5 -17 13 -17 14 -2 15 10 0 22 9 28 20 12 23 39
26 62 8z m36514 -154 c31 -8 26 -24 -14 -47 -34 -20 -82 -17 -82 5 0 19 43 59
58 53 8 -3 25 -8 38 -11z m-261 -94 c-11 -5 -27 -9 -35 -9 -9 0 -8 4 5 9 11 5
27 9 35 9 9 0 8 -4 -5 -9z m-34947 -148 c6 -18 -15 -14 -22 4 -4 10 -1 14 6
12 6 -2 14 -10 16 -16z m-433 -62 c-3 -5 -16 -10 -28 -10 -18 0 -19 2 -7 10
20 13 43 13 35 0z m255 -21 c0 -6 -4 -7 -10 -4 -5 3 -10 11 -10 16 0 6 5 7 10
4 6 -3 10 -11 10 -16z m-320 -49 c0 -5 -4 -12 -10 -15 -5 -3 -10 -4 -10 -1 0
2 -3 12 -6 20 -5 12 -2 15 10 10 9 -3 16 -10 16 -14z m307 -12 c-3 -7 -5 -2
-5 12 0 14 2 19 5 13 2 -7 2 -19 0 -25z m-417 -38 c0 -5 -5 -10 -11 -10 -5 0
-7 5 -4 10 3 6 8 10 11 10 2 0 4 -4 4 -10z m460 -80 c0 -5 -2 -10 -4 -10 -3 0
-8 5 -11 10 -3 6 -1 10 4 10 6 0 11 -4 11 -10z m300 -710 c0 -5 -4 -10 -10
-10 -5 0 -10 5 -10 10 0 6 5 10 10 10 6 0 10 -4 10 -10z m2010 -2940 c12 -8
12 -10 -5 -10 -11 0 -27 5 -35 10 -12 8 -12 10 5 10 11 0 27 -5 35 -10z m145
-158 c-3 -3 -11 0 -18 7 -9 10 -8 11 6 5 10 -3 15 -9 12 -12z m40 -30 c-3 -3
-11 0 -18 7 -9 10 -8 11 6 5 10 -3 15 -9 12 -12z m90 -32 c2 -4 -7 -5 -20 -2
-14 2 -25 8 -25 12 0 10 38 1 45 -10z m115 -180 c0 -5 -4 -10 -9 -10 -6 0 -13
5 -16 10 -3 6 1 10 9 10 9 0 16 -4 16 -10z m-390 -320 c0 -5 -4 -10 -10 -10
-5 0 -10 5 -10 10 0 6 5 10 10 10 6 0 10 -4 10 -10z m-191 -14 c-22 -19 -105
-56 -116 -52 -18 7 -7 26 15 26 9 0 28 7 42 14 22 12 71 22 59 12z m1171 -226
c0 -5 -2 -10 -4 -10 -3 0 -8 5 -11 10 -3 6 -1 10 4 10 6 0 11 -4 11 -10z
m-745 -30 c3 -5 1 -10 -4 -10 -6 0 -11 5 -11 10 0 6 2 10 4 10 3 0 8 -4 11
-10z m-1845 -4482 c13 -34 42 -102 66 -150 11 -25 11 -29 -7 -42 -25 -17 -59
-10 -59 13 0 9 -9 34 -21 55 -11 21 -21 59 -21 85 -2 75 20 95 42 39z m150
-323 c0 -8 -4 -15 -10 -15 -5 0 -7 7 -4 15 4 8 8 15 10 15 2 0 4 -7 4 -15z
m4451 -6345 c13 0 11 -35 -7 -96 -13 -47 -24 -62 -72 -99 -31 -24 -69 -47 -84
-50 -31 -7 -91 9 -107 29 -36 43 110 196 185 196 20 0 34 6 38 16 4 10 12 14
22 10 9 -3 20 -6 25 -6z"/>
<path d="M24575 21614 c-16 -9 -42 -35 -57 -59 -17 -28 -42 -52 -70 -66 -52
-26 -61 -38 -42 -56 8 -8 14 -28 14 -44 0 -19 6 -32 18 -36 9 -3 40 -23 68
-44 37 -28 65 -41 100 -45 61 -8 87 -24 143 -85 42 -48 44 -49 103 -49 45 0
66 -5 85 -20 14 -11 32 -20 40 -20 16 0 59 -25 93 -56 35 -31 115 -52 165 -43
22 4 43 5 47 3 9 -6 16 7 22 39 2 15 7 31 10 35 12 20 -149 111 -196 113 -13
0 -39 5 -58 12 -30 10 -36 18 -42 52 -16 102 -63 164 -113 151 -22 -6 -38 7
-120 89 -52 52 -95 101 -95 109 0 13 -50 37 -74 35 -6 0 -24 -7 -41 -15z"/>
<path d="M25246 20899 c5 -9 2 -10 -9 -6 -23 9 -48 -40 -36 -71 8 -20 14 -22
51 -19 49 5 81 37 76 76 -3 23 -8 26 -46 29 -33 2 -42 0 -36 -9z"/>
<path d="M24082 19539 c2 -6 8 -10 13 -10 5 0 11 4 13 10 2 6 -4 11 -13 11 -9
0 -15 -5 -13 -11z"/>
<path d="M24260 19483 c0 -6 -3 -18 -6 -27 -3 -9 -1 -16 5 -16 17 0 25 30 12
43 -8 8 -11 8 -11 0z"/>
<path d="M24218 19353 c7 -3 16 -2 19 1 4 3 -2 6 -13 5 -11 0 -14 -3 -6 -6z"/>
<path d="M24200 18580 c0 -5 5 -10 10 -10 6 0 10 5 10 10 0 6 -4 10 -10 10 -5
0 -10 -4 -10 -10z"/>
</g>
</svg>
